<svg width="242" height="268" viewBox="0 0 242 268" fill="none" xmlns="http://www.w3.org/2000/svg">
<path d="M75.306 253.926C111.265 272.691 169.574 272.691 205.533 253.926C241.492 235.161 241.492 204.744 205.533 185.979C169.574 167.214 111.265 167.221 75.306 185.979C39.3467 204.738 39.3467 235.134 75.306 253.926Z" fill="#F5F5F5"/>
<path d="M99.4258 177.618C99.2587 177.391 99.3523 162.196 94.1942 157.678C89.0362 153.16 84.4862 156.744 87.4728 162.156C89.4772 165.726 95.016 172.046 95.0227 178.098L99.4258 177.618Z" fill="#12558A"/>
<path opacity="0.6" d="M99.4258 177.618C99.2587 177.391 99.3523 162.196 94.1942 157.678C89.0362 153.16 84.4862 156.744 87.4728 162.156C89.4772 165.726 95.016 172.046 95.0227 178.098L99.4258 177.618Z" fill="white"/>
<path d="M97.6151 177.971C97.5469 177.972 97.481 177.947 97.4303 177.901C97.3796 177.855 97.3479 177.792 97.3412 177.724C95.7911 163.157 89.9516 157.938 89.8915 157.885C89.8365 157.837 89.8028 157.77 89.7978 157.697C89.7928 157.624 89.8169 157.553 89.8647 157.498C89.9126 157.443 89.9803 157.409 90.053 157.404C90.1256 157.399 90.1973 157.423 90.2522 157.471C90.4995 157.685 96.319 162.856 97.8891 177.664C97.8966 177.738 97.8748 177.811 97.8286 177.869C97.7823 177.926 97.7152 177.963 97.6419 177.971H97.6151Z" fill="white"/>
<path d="M98.4303 193.7C96.5394 185.125 93.8401 180.147 83.1566 174.655C73.3149 169.59 64.8496 164.238 74.6913 162.296C82.8626 160.681 98.5906 173.64 99.1518 184.985L98.4303 193.7Z" fill="#12558A"/>
<path d="M97.3813 182.923C97.3253 182.924 97.2703 182.908 97.2237 182.877C97.1772 182.846 97.1412 182.801 97.1207 182.749C93.8936 174.154 83.5842 165.839 74.6512 164.592C74.579 164.58 74.5141 164.541 74.4705 164.482C74.4268 164.424 74.4077 164.35 74.4174 164.278C74.4223 164.242 74.4343 164.207 74.4528 164.176C74.4714 164.144 74.496 164.117 74.5252 164.095C74.5545 164.073 74.5878 164.058 74.6232 164.049C74.6586 164.04 74.6954 164.039 74.7314 164.044C83.8582 165.319 94.3479 173.794 97.6419 182.556C97.6657 182.625 97.6615 182.701 97.6303 182.767C97.5991 182.833 97.5433 182.884 97.4748 182.91L97.3813 182.923Z" fill="white"/>
<path d="M177.077 206.706C176.796 207.08 176.75 207.941 176.462 209.109C176.172 209.968 176.105 210.886 176.268 211.778C176.94 212.898 178.005 213.728 179.255 214.107C180.792 214.587 182.683 214.187 184.513 213.093C186.344 211.998 187.727 210.67 190.339 209.93C192.952 209.189 194.248 208.595 195.484 207.594C196.934 206.433 198.865 203.23 196.099 202.489C193.333 201.748 187.313 204.364 181.841 204.604L177.077 206.706Z" fill="#263238"/>
<path d="M177.077 203.29V207.387C177.242 207.849 177.534 208.255 177.919 208.559C178.304 208.863 178.767 209.054 179.255 209.109C179.705 209.181 180.166 209.132 180.591 208.969C181.256 208.714 181.832 208.271 182.249 207.696C182.667 207.12 182.908 206.435 182.943 205.725L183.104 203.29H177.077Z" fill="#F5D9BF"/>
<path d="M184.908 177.985C184.941 183.076 183.478 205.085 183.478 205.085C183.478 205.085 181.393 207.721 176.863 205.085L175.32 180.521L184.908 177.985Z" fill="#12558A"/>
<path opacity="0.5" d="M184.908 177.985C184.941 183.076 183.478 205.085 183.478 205.085C183.478 205.085 181.393 207.721 176.863 205.085L175.32 180.521L184.908 177.985Z" fill="black"/>
<path d="M171.678 224.177C172.253 219.926 176.669 211.931 184.253 208.555C191.836 205.178 201.01 206.132 202.753 207.601C204.497 209.069 204.952 212.138 201.304 213.126C197.656 214.114 194.789 215.795 197.048 217.697C199.306 219.599 200.007 222.222 196.313 222.936C192.618 223.65 188.255 221.02 187.226 223.369C186.197 225.718 188.368 227.52 184.253 228.368C180.137 229.215 175.079 226.039 172.226 230.723L171.678 224.177Z" fill="#12558A"/>
<path d="M171.926 227.393C171.89 227.4 171.854 227.4 171.819 227.393C171.785 227.38 171.755 227.359 171.729 227.333C171.704 227.308 171.684 227.277 171.67 227.244C171.656 227.21 171.649 227.174 171.65 227.138C171.65 227.102 171.657 227.066 171.672 227.033C177.297 213.687 193.56 207.681 199.232 208.041C199.306 208.046 199.374 208.08 199.423 208.135C199.471 208.19 199.497 208.261 199.493 208.335C199.491 208.371 199.482 208.407 199.467 208.44C199.451 208.473 199.428 208.502 199.401 208.527C199.374 208.551 199.342 208.57 199.307 208.581C199.272 208.593 199.236 208.598 199.199 208.595C194.696 208.321 178.039 213.386 172.179 227.247C172.155 227.293 172.119 227.331 172.074 227.357C172.029 227.383 171.977 227.395 171.926 227.393Z" fill="white"/>
<path d="M194.195 219.225C194.157 219.232 194.119 219.232 194.081 219.225C194.008 219.185 186.371 215.809 179.315 217.39C179.28 217.399 179.243 217.401 179.208 217.395C179.172 217.389 179.138 217.376 179.107 217.357C179.076 217.338 179.05 217.312 179.03 217.282C179.009 217.253 178.995 217.219 178.988 217.183C178.98 217.148 178.979 217.112 178.985 217.077C178.991 217.041 179.004 217.007 179.024 216.977C179.062 216.916 179.124 216.872 179.195 216.856C186.431 215.235 194.235 218.685 194.308 218.718C194.368 218.742 194.418 218.787 194.448 218.844C194.478 218.901 194.487 218.966 194.474 219.03C194.46 219.093 194.425 219.149 194.374 219.188C194.323 219.228 194.259 219.248 194.195 219.245V219.225Z" fill="white"/>
<path d="M131.456 157.424L107.557 171.205L164.322 203.937L182.248 193.6L188.221 190.157L131.456 157.424Z" fill="#12558A"/>
<path d="M188.221 190.157V193.607L170.295 203.944L170.289 200.494L188.221 190.157Z" fill="#12558A"/>
<path opacity="0.2" d="M188.221 190.157V193.607L170.295 203.944L170.289 200.494L188.221 190.157Z" fill="black"/>
<path d="M134.015 174.655C134.015 174.655 154.948 168.342 158.583 167.348C162.217 166.353 169.206 164.678 171.244 165.593C173.282 166.507 174.317 167.561 174.505 170.504C174.545 171.058 174.505 173.747 174.505 173.747C174.505 173.747 164.389 176.87 156.104 176.87C147.819 176.87 134.015 174.655 134.015 174.655Z" fill="#12558A"/>
<path opacity="0.6" d="M134.015 174.655C134.015 174.655 154.948 168.342 158.583 167.348C162.217 166.353 169.206 164.678 171.244 165.593C173.282 166.507 174.317 167.561 174.505 170.504C174.545 171.058 174.505 173.747 174.505 173.747C174.505 173.747 164.389 176.87 156.104 176.87C147.819 176.87 134.015 174.655 134.015 174.655Z" fill="black"/>
<path d="M151.908 139.126L150.518 146.621L142.821 147.508L143.931 137.165L151.908 139.126Z" fill="#F5D9BF"/>
<path d="M159.084 133.141C159.084 133.141 160.093 136.23 159.785 136.424C159.232 136.541 158.664 136.573 158.102 136.517L159.084 133.141Z" fill="#F28F8F"/>
<path d="M157.079 123.231C158.416 124.626 159.665 126.954 159.084 132.86C158.476 139.333 156.538 141.062 155.743 141.435C154.521 142.003 150.398 141.015 149.022 140.021C147.338 138.779 144.158 135.683 143.329 131.873C142.354 127.388 143.603 122.29 146.884 121.256C151.534 119.794 155.984 122.05 157.079 123.231Z" fill="#F5D9BF"/>
<path d="M160.133 126.414C159.345 127.895 157.861 131.586 153.645 132.627C153.645 132.627 153.411 130.118 151.327 130.091C149.242 130.064 148.534 132.633 149.57 134.422C150.605 136.21 151.908 135.803 151.908 135.803C151.908 135.803 151.694 139.333 149.149 140.595C149.149 140.595 146.082 141.989 143.289 140.208C142.033 139.407 140.576 135.93 139.828 133.141C138.238 127.241 138.525 122.724 142.28 121.796C143.069 119.32 144.345 118.526 146.703 118.373C151.795 118.032 155.082 121.796 159.311 121.796C161.516 121.796 161.028 124.726 160.133 126.414Z" fill="#263238"/>
<path d="M142.38 122.223L139.828 121.129C139.9 120.962 140.003 120.811 140.133 120.684C140.263 120.557 140.417 120.457 140.586 120.389C140.755 120.322 140.935 120.288 141.117 120.29C141.299 120.292 141.478 120.33 141.645 120.401C141.813 120.473 141.964 120.576 142.091 120.706C142.218 120.836 142.318 120.99 142.386 121.158C142.454 121.327 142.487 121.507 142.485 121.689C142.483 121.87 142.445 122.05 142.374 122.216L142.38 122.223Z" fill="#263238"/>
<path d="M134.069 172.139C134.069 176.143 133.688 180.334 135.365 183.277C137.042 186.219 144.639 192.279 153.191 190.837C158.777 189.896 176.836 183.023 176.836 183.023C176.836 183.023 184.854 180.08 184.907 177.985C184.961 174.888 184.747 170.537 177.738 170.724C171.351 170.891 152.396 173.994 152.396 173.994L134.069 172.139Z" fill="#12558A"/>
<path opacity="0.5" d="M134.069 172.139C134.069 176.143 133.688 180.334 135.365 183.277C137.042 186.219 144.639 192.279 153.191 190.837C158.777 189.896 176.836 183.023 176.836 183.023C176.836 183.023 184.854 180.08 184.907 177.985C184.961 174.888 184.747 170.537 177.738 170.724C171.351 170.891 152.396 173.994 152.396 173.994L134.069 172.139Z" fill="black"/>
<path d="M135.559 146.18C136.227 144.085 138.899 141.802 141.572 142.296C146.469 143.204 151.828 144.792 153.244 145.206C153.244 145.206 152.576 155.99 158.142 159.22L158.87 172.946C158.87 172.946 157.5 175.676 155.389 177.024C153.097 178.472 149.917 180.654 144.164 180.174C142.174 180.017 140.24 179.441 138.488 178.484C136.736 177.527 135.208 176.211 134.002 174.621C134.002 174.621 134.069 161.649 134.289 155.843C134.49 150.945 135.084 147.621 135.559 146.18Z" fill="#12558A"/>
<path opacity="0.2" d="M135.559 146.18C136.227 144.085 138.899 141.802 141.572 142.296C146.469 143.204 151.828 144.792 153.244 145.206C153.244 145.206 152.576 155.99 158.142 159.22L158.87 172.946C158.87 172.946 157.5 175.676 155.389 177.024C153.097 178.472 149.917 180.654 144.164 180.174C142.174 180.017 140.24 179.441 138.488 178.484C136.736 177.527 135.208 176.211 134.002 174.621C134.002 174.621 134.069 161.649 134.289 155.843C134.49 150.945 135.084 147.621 135.559 146.18Z" fill="black"/>
<path d="M158.296 161.909C158.296 161.909 155.402 158.913 154.387 155.436C154.387 155.436 154.387 160.521 158.356 163.27L158.296 161.909Z" fill="#12558A"/>
<path opacity="0.4" d="M158.296 161.909C158.296 161.909 155.402 158.913 154.387 155.436C154.387 155.436 154.387 160.521 158.356 163.27L158.296 161.909Z" fill="black"/>
<path d="M177.317 152.059L180.424 147.601C180.424 147.601 181.166 146.527 181.44 146.08C181.714 145.633 181.901 144.138 180.986 143.758C179.329 143.09 175.881 141.442 174.872 141.435C174.458 141.435 172.727 144.332 169.761 148.235C167.984 150.571 165.531 153.814 165.531 154.101C165.531 154.388 164.897 154.682 167.476 155.996C169.325 156.903 171.239 157.67 173.202 158.292L177.317 152.059Z" fill="#12558A"/>
<path opacity="0.6" d="M177.317 152.059L180.424 147.601C180.424 147.601 181.166 146.527 181.44 146.08C181.714 145.633 181.901 144.138 180.986 143.758C179.329 143.09 175.881 141.442 174.872 141.435C174.458 141.435 172.727 144.332 169.761 148.235C167.984 150.571 165.531 153.814 165.531 154.101C165.531 154.388 164.897 154.682 167.476 155.996C169.325 156.903 171.239 157.67 173.202 158.292L177.317 152.059Z" fill="black"/>
<path d="M179.295 147.221C177.391 149.957 173.329 156.724 173.208 156.911C173.088 157.097 167.195 154.555 165.612 153.868C165.572 153.941 165.545 154.02 165.531 154.101C165.531 154.381 164.897 154.682 167.476 155.996C169.325 156.903 171.239 157.67 173.202 158.292L177.317 152.059L180.424 147.601C180.424 147.601 181.166 146.527 181.44 146.08C181.714 145.633 181.901 144.138 180.986 143.758C181.166 143.851 181.193 144.485 179.295 147.221Z" fill="#263238"/>
<path d="M174.271 142.857L180.15 145.239L173.589 155.256L167.73 152.747L174.271 142.857Z" fill="#12558A"/>
<path opacity="0.8" d="M174.271 142.857L180.15 145.239L173.589 155.256L167.73 152.747L174.271 142.857Z" fill="white"/>
<path d="M153.258 145.206C156.278 146.113 158.122 146.28 161.462 151.412C164.803 156.544 172.119 166.72 172.821 167.948C173.83 169.65 174.264 171.672 173.395 173.24C172.58 174.695 170.215 174.061 166.901 171.151C163.694 168.342 157.347 160.401 157.347 160.401C155.256 155.56 153.879 150.442 153.258 145.206Z" fill="#F5D9BF"/>
<path d="M172.681 173.994C174.211 173.554 176.516 167.875 178.28 161.435C180.043 154.995 180.952 153.561 180.952 151.532C180.952 149.503 180.859 146.914 180.859 146.914L177.839 151.258C177.717 150.407 177.46 149.58 177.077 148.809C176.689 148.015 175.961 147.395 175.366 147.868C175.046 148.122 175.888 149.203 175.707 151.652C175.654 152.628 175.714 153.607 175.888 154.568L170.262 168.168L172.681 173.994Z" fill="#F5D9BF"/>
<path d="M153.258 145.206C154.757 145.523 156.22 145.988 157.627 146.594C158.986 147.128 160.141 148.076 160.928 149.303C163.266 153.18 166.607 158.699 166.607 158.699C166.607 158.699 167.182 163.504 161.336 165.185L158.222 161.849C156.95 160.49 155.905 158.935 155.128 157.244C153.812 154.335 152.309 149.744 153.258 145.206Z" fill="#12558A"/>
<path opacity="0.2" d="M153.258 145.206C154.757 145.523 156.22 145.988 157.627 146.594C158.986 147.128 160.141 148.076 160.928 149.303C163.266 153.18 166.607 158.699 166.607 158.699C166.607 158.699 167.182 163.504 161.336 165.185L158.222 161.849C156.95 160.49 155.905 158.935 155.128 157.244C153.812 154.335 152.309 149.744 153.258 145.206Z" fill="black"/>
<path d="M161.135 81.5097L98.791 45.561C97.2209 44.6534 95.918 45.214 95.6575 46.7956C95.8029 45.8023 96.1573 44.851 96.6974 44.0045C97.2375 43.1579 97.9511 42.4353 98.791 41.884L101.383 40.3826C102.37 39.8825 103.461 39.6219 104.567 39.6219C105.673 39.6219 106.764 39.8825 107.751 40.3826L170.102 76.3313C171.04 76.9219 171.814 77.7389 172.353 78.707L163.387 83.8787C162.853 82.9089 162.077 82.093 161.135 81.5097Z" fill="#37474F"/>
<path d="M173.282 229.556C173.223 230.659 172.903 231.733 172.349 232.69C171.795 233.646 171.023 234.459 170.095 235.061L167.503 236.576C166.604 237.026 165.621 237.281 164.617 237.325C163.612 237.368 162.61 237.2 161.676 236.829C163.18 237.397 164.349 236.549 164.349 234.734V87.0152C164.309 85.9094 163.987 84.8321 163.413 83.8854L172.38 78.7137C172.951 79.6636 173.27 80.7429 173.309 81.8501L173.282 229.556Z" fill="#263238"/>
<path d="M161.135 81.5097L98.7911 45.561C97.0339 44.5467 95.6107 45.3675 95.6107 47.3961V195.102C95.6709 196.204 95.9902 197.277 96.5427 198.234C97.0953 199.19 97.8655 200.003 98.7911 200.607L161.135 236.576C162.899 237.583 164.315 236.763 164.315 234.734V87.0152C164.257 85.9122 163.938 84.8386 163.386 83.882C162.833 82.9253 162.062 82.1125 161.135 81.5097ZM161.329 213.793C161.329 215.015 160.48 215.508 159.418 214.894L100.508 180.921C99.9458 180.557 99.4784 180.065 99.1448 179.485C98.8113 178.904 98.6213 178.253 98.5906 177.584V68.3234C98.5906 67.1022 99.4458 66.6084 100.508 67.2223L102.853 68.557L159.418 101.182C159.98 101.546 160.446 102.039 160.778 102.619C161.111 103.2 161.299 103.851 161.329 104.519V213.793Z" fill="#455A64"/>
<path d="M129.96 69.1376C130.287 69.3483 130.559 69.6337 130.754 69.9701C130.949 70.3066 131.062 70.6845 131.082 71.0728C131.082 71.7868 130.581 72.0805 129.96 71.7401C129.635 71.5278 129.364 71.2419 129.17 70.9057C128.976 70.5695 128.865 70.1923 128.844 69.8049C128.844 69.0775 129.345 68.7772 129.96 69.1376Z" fill="#263238"/>
<path d="M129.96 203.156C131.243 203.998 132.311 205.129 133.075 206.459C133.84 207.788 134.281 209.279 134.363 210.81C134.363 213.626 132.358 214.774 129.94 213.36C128.653 212.521 127.582 211.392 126.814 210.063C126.045 208.735 125.601 207.244 125.517 205.712C125.537 202.889 127.521 201.748 129.96 203.156Z" fill="#263238"/>
<path d="M140.543 80.5088C141.195 80.9327 141.738 81.504 142.128 82.1764C142.518 82.8488 142.744 83.6034 142.788 84.3792C142.788 85.8073 141.779 86.3812 140.543 85.6738C139.891 85.2485 139.349 84.6758 138.96 84.0022C138.571 83.3287 138.347 82.5731 138.305 81.7967C138.305 80.3686 139.307 79.7947 140.543 80.5088Z" fill="#263238"/>
<path d="M135.064 80.0216C135.064 80.9759 134.356 81.3563 133.474 80.8291L118.735 72.3274C118.276 72.0407 117.892 71.6492 117.614 71.1851C117.337 70.721 117.173 70.1976 117.138 69.6581C117.138 68.7038 117.853 68.3234 118.735 68.8506L133.474 77.3523C133.933 77.6389 134.316 78.0305 134.593 78.4948C134.869 78.959 135.031 79.4824 135.064 80.0216Z" fill="#263238"/>
<path d="M107.557 71.2863L100.502 67.2223C99.4459 66.6084 98.5906 67.1022 98.5906 68.3234V177.618C98.6217 178.285 98.8111 178.936 99.1433 179.516C99.4756 180.096 99.9411 180.589 100.502 180.954L107.557 185.025V71.2863Z" fill="#263238"/>
<g opacity="0.15">
<path d="M161.329 104.499V202.215L102.853 168.509V68.5703L159.418 101.196C159.975 101.556 160.439 102.044 160.771 102.618C161.103 103.192 161.294 103.837 161.329 104.499Z" fill="white"/>
</g>
<path d="M103.221 69.211L159.238 101.516C159.736 101.847 160.15 102.288 160.449 102.806C160.748 103.323 160.924 103.903 160.961 104.499V201.581L103.221 168.289V69.211ZM102.853 68.5436V168.509L161.329 202.222V104.499C161.299 103.831 161.111 103.18 160.778 102.599C160.446 102.019 159.98 101.526 159.418 101.162L102.853 68.537V68.5436Z" fill="white"/>
<path d="M161.336 213.793V205.665L107.557 174.655L99.1519 179.493C99.4676 180.075 99.9277 180.567 100.488 180.921L159.411 214.894C160.474 215.508 161.336 215.014 161.336 213.793Z" fill="#37474F"/>
<path d="M161.336 209.109L143.409 219.446V216.002L161.336 205.665V209.109Z" fill="#12558A"/>
<path opacity="0.2" d="M161.336 209.109L143.409 219.446V216.002L161.336 205.665V209.109Z" fill="black"/>
<path d="M86.6443 183.27L143.409 216.002V219.446L86.6443 186.713V183.27Z" fill="#12558A"/>
<path opacity="0.2" d="M86.6443 183.27L143.409 216.002V219.446L86.6443 186.713V183.27Z" fill="black"/>
<path d="M107.557 171.205L86.6443 183.27L143.409 216.002L161.336 205.665V202.215L107.557 171.205Z" fill="#12558A"/>
<path d="M107.557 171.205L86.6443 183.27L143.409 216.002L161.336 205.665V202.215L107.557 171.205Z" fill="#12558A"/>
<path d="M108.078 143.951C106.301 143.951 104.945 144.058 101.664 148.809C98.8846 152.813 89.7912 165.372 89.25 165.966C88.7088 166.56 93.3524 168.676 93.3524 168.676L105.633 156.35L108.078 143.951Z" fill="#F5D9BF"/>
<path d="M91.0941 164.952C91.0941 164.952 92.0696 164.431 94.535 164.451C96.0651 164.451 97.0205 164.558 97.2076 164.064C97.4548 163.324 98.0561 161.962 98.3702 161.969V165.593L91.0941 164.952Z" fill="#F28F8F"/>
<path d="M86.7779 219.272C82.6689 224.691 79.4618 225.945 78.3393 227.12C77.2168 228.294 77.8649 230.61 80.611 231.124C83.3571 231.638 86.3303 231.01 88.1008 229.242C89.8714 227.473 91.0941 225.171 92.8981 223.903C94.7021 222.635 95.6308 222.275 95.9047 220.754C96.1786 219.232 94.8023 214.708 94.8023 214.708L86.7779 219.272Z" fill="#263238"/>
<path d="M88.7489 211.011C89.1297 212.979 89.5574 214.701 88.2144 217.07C87.7784 217.831 87.2988 218.566 86.7779 219.272C84.3793 222.495 82.4283 225.011 82.1009 225.451C81.7735 225.892 83.7913 227.293 86.1098 226.332C88.4282 225.371 90.4259 221.941 91.9359 219.873C92.6041 218.952 93.2722 218.118 93.7934 217.47C94.4993 216.609 94.8653 215.519 94.8223 214.407L94.6954 211.264L88.7489 211.011Z" fill="#F5D9BF"/>
<path d="M96.78 226.973C92.6709 232.398 89.4638 233.646 88.3414 234.827C87.2189 236.009 87.8737 238.311 90.613 238.831C93.3524 239.352 96.3323 238.711 98.1029 236.949C99.8734 235.188 101.096 232.872 102.907 231.611C104.717 230.35 105.639 229.976 105.907 228.454C106.174 226.933 104.811 222.408 104.811 222.408L96.78 226.973Z" fill="#263238"/>
<path d="M98.751 218.711C99.1385 220.68 99.5594 222.402 98.2165 224.771C97.7836 225.534 97.3039 226.269 96.78 226.973C94.3814 230.196 92.4304 232.712 92.103 233.152C91.7756 233.593 93.7934 235.001 96.1118 234.04C98.4303 233.079 100.428 229.649 101.938 227.58C102.606 226.659 103.274 225.818 103.795 225.178C104.501 224.314 104.867 223.222 104.824 222.108L104.704 218.965L98.751 218.711Z" fill="#F5D9BF"/>
<path d="M125.543 170.511C128.69 176.97 127.448 183.37 118.942 187.561C114.192 189.903 104.998 194.041 104.998 194.041C104.998 194.041 106.334 197.711 106.381 203.897C106.428 209.342 104.978 221.187 104.978 221.187C104.978 221.187 101.424 222.836 98.8779 221.187C98.8779 221.187 97.7488 213.847 96.8735 206.446C95.8112 197.15 94.9159 191.685 95.3903 189.683C95.8112 187.915 99.5127 185.325 102.339 183.343L92.4772 187.975C92.4772 187.975 94.5952 190.897 95.0963 196.163C95.7043 202.529 94.9359 213.473 94.9359 213.473C93.9929 213.933 92.9646 214.194 91.9158 214.237C90.867 214.281 89.8206 214.107 88.8425 213.727C88.8425 213.727 81.9005 186.733 82.9428 182.99C84.4394 177.618 104.925 169.436 105.967 167.328L125.543 170.511Z" fill="#12558A"/>
<path opacity="0.2" d="M125.543 170.511C128.69 176.97 127.448 183.37 118.942 187.561C114.192 189.903 104.998 194.041 104.998 194.041C104.998 194.041 106.334 197.711 106.381 203.897C106.428 209.342 104.978 221.187 104.978 221.187C104.978 221.187 101.424 222.836 98.8779 221.187C98.8779 221.187 97.7488 213.847 96.8735 206.446C95.8112 197.15 94.9159 191.685 95.3903 189.683C95.8112 187.915 99.5127 185.325 102.339 183.343L92.4772 187.975C92.4772 187.975 94.5952 190.897 95.0963 196.163C95.7043 202.529 94.9359 213.473 94.9359 213.473C93.9929 213.933 92.9646 214.194 91.9158 214.237C90.867 214.281 89.8206 214.107 88.8425 213.727C88.8425 213.727 81.9005 186.733 82.9428 182.99C84.4394 177.618 104.925 169.436 105.967 167.328L125.543 170.511Z" fill="black"/>
<path d="M118.555 143.965C124.969 144.565 125.991 143.537 127.909 148.729L122.029 163.697L125.543 170.511C124.715 171.745 114.92 177.004 106.314 170.731C104.804 165.241 103.599 159.671 102.706 154.048C102.038 149.317 106.234 144.098 108.312 143.891C109.061 143.802 109.816 143.76 110.57 143.764L118.555 143.965Z" fill="#12558A"/>
<path opacity="0.6" d="M118.555 143.965C124.969 144.565 125.991 143.537 127.909 148.729L122.029 163.697L125.543 170.511C124.715 171.745 114.92 177.004 106.314 170.731C104.804 165.241 103.599 159.671 102.706 154.048C102.038 149.317 106.234 144.098 108.312 143.891C109.061 143.802 109.816 143.76 110.57 143.764L118.555 143.965Z" fill="white"/>
<path d="M96.192 164.939C97.5282 164.979 97.4748 164.124 97.8089 163.29C98.2031 162.309 98.5639 161.435 98.5639 161.435L99.4458 164.612L100.655 170.497C100.655 170.497 97.1073 170.451 94.5016 170.497C91.8958 170.544 88.936 169.677 88.6353 167.828C88.4482 166.68 89.3034 165.072 91.976 164.818C93.3823 164.751 94.7918 164.791 96.192 164.939Z" fill="#F5D9BF"/>
<path d="M98.7042 157.424C97.3679 157.892 97.7153 160.127 98.2766 162.63C98.8378 165.132 99.7665 169.336 100.054 170.444C100.341 171.552 100.722 172.239 102.379 172.239C104.036 172.239 106.735 172.419 107.904 172.239C109.074 172.059 109.241 171.025 109 168.669C108.718 165.98 108.299 163.307 107.744 160.661C107.276 158.425 106.989 157.238 105.599 157.238C103.982 157.218 100.107 156.937 98.7042 157.424Z" fill="#263238"/>
<path d="M98.6173 164.184C98.751 164.772 99.9536 165.259 101.049 165.306C102.635 165.368 104.223 165.26 105.786 164.985C106.902 164.685 107.61 166.607 106.535 168.362C105.459 170.117 103.027 170.651 100.061 170.491C99.1698 169.615 98.5803 168.479 98.3768 167.247C98.2872 166.22 98.3685 165.185 98.6173 164.184Z" fill="#F5D9BF"/>
<path d="M122.056 163.697C122.056 163.697 121.388 164.805 119.31 164.805C121.147 163.557 122.744 161.088 124.241 158.132L122.056 163.697Z" fill="#12558A"/>
<path opacity="0.1" d="M122.056 163.697C122.056 163.697 121.388 164.805 119.31 164.805C121.147 163.557 122.744 161.088 124.241 158.132L122.056 163.697Z" fill="white"/>
<path d="M124.962 144.639C128.503 145.306 129.98 148.643 130.087 155.182C130.194 161.722 129.352 183.397 129.278 184.358C129.202 185.094 129.324 185.838 129.63 186.512C129.937 187.186 130.417 187.767 131.022 188.195C133.548 189.997 136.594 191.445 138.084 192.452C140.049 193.787 138.084 195.962 135.672 196.109C133.414 196.249 129.799 194.294 128.877 193.527C129.334 194.132 129.688 194.809 129.926 195.529C130.321 197.064 129.926 197.964 129.218 197.644C128.817 197.464 128.329 196.857 126.946 195.168C124.548 192.225 124.033 190.904 124.007 187.247C124.007 184.771 123.799 172.006 123.599 167.147C123.472 164.171 123.499 157.705 123.552 153.687C123.606 149.67 124.22 145.206 124.962 144.639Z" fill="#F5D9BF"/>
<path d="M103.014 131.806C103.014 131.806 100.762 128.216 102.346 124.766C103.929 121.316 110.403 116.811 117.786 120.014C124.802 123.064 124.18 131.125 124.207 134.776C124.254 138.232 103.014 131.806 103.014 131.806Z" fill="#263238"/>
<path d="M105.072 124.552C106.094 122.55 112.588 119.354 118.762 122.483C124.935 125.613 124.22 134.041 124.22 139.834V150.511C124.22 152.032 120.646 154.128 117.212 152.913L117.459 137.318C117.459 137.318 118.421 127.795 115.454 125.513C112.488 123.231 105.072 124.552 105.072 124.552Z" fill="#263238"/>
<path d="M117.459 132.927C117.86 133.167 118.434 132.393 118.929 131.873C119.423 131.352 121.047 130.651 121.849 132.346C122.65 134.041 120.806 136.384 119.71 137.145C119.404 137.411 119.021 137.573 118.616 137.608C118.212 137.643 117.806 137.548 117.459 137.338L117.352 143.918C117.352 143.918 115.728 147.481 111.84 148.009C107.951 148.536 108.746 145.339 110.022 143.758V141.349C109.05 141.556 108.051 141.606 107.063 141.495C106.555 141.362 105.339 139.901 104.557 138.266C103.682 136.424 102.219 133.161 103.521 127.642C104.918 121.716 111.292 121.536 115.1 123.925C118.909 126.314 117.459 132.927 117.459 132.927Z" fill="#F5D9BF"/>
<path d="M110.029 141.349C110.029 141.349 113.637 140.621 114.893 139.954C115.636 139.57 116.244 138.97 116.637 138.232C116.445 138.959 116.109 139.64 115.648 140.234C114.726 141.409 110.029 142.276 110.029 142.276V141.349Z" fill="#F28F8F"/>
<path d="M110.069 132.774C110.075 132.916 110.122 133.055 110.205 133.171C110.289 133.287 110.405 133.376 110.538 133.427C110.672 133.478 110.818 133.488 110.958 133.456C111.097 133.425 111.225 133.353 111.324 133.249C111.422 133.146 111.489 133.016 111.514 132.875C111.539 132.734 111.522 132.589 111.465 132.458C111.409 132.327 111.314 132.215 111.194 132.137C111.074 132.059 110.934 132.018 110.791 132.019C110.694 132.021 110.598 132.042 110.509 132.081C110.42 132.12 110.34 132.176 110.273 132.246C110.206 132.316 110.153 132.399 110.118 132.49C110.083 132.58 110.067 132.677 110.069 132.774Z" fill="#263238"/>
<path d="M110.838 130.044L112.381 130.898C112.49 130.687 112.514 130.441 112.447 130.212C112.379 129.984 112.227 129.79 112.02 129.671C111.918 129.615 111.807 129.581 111.691 129.57C111.576 129.559 111.46 129.572 111.349 129.607C111.239 129.641 111.137 129.698 111.049 129.773C110.961 129.849 110.889 129.941 110.838 130.044Z" fill="#263238"/>
<path d="M118.742 118.626L119.163 121.175C119.509 121.115 119.817 120.921 120.021 120.635C120.225 120.349 120.308 119.994 120.252 119.647C120.222 119.48 120.159 119.32 120.067 119.178C119.974 119.035 119.854 118.913 119.713 118.817C119.572 118.722 119.414 118.656 119.247 118.623C119.08 118.591 118.908 118.592 118.742 118.626Z" fill="#263238"/>
<path d="M121.828 119.888L119.463 120.915C119.609 121.232 119.873 121.479 120.199 121.604C120.525 121.728 120.887 121.721 121.207 121.583C121.361 121.514 121.5 121.416 121.615 121.293C121.731 121.17 121.82 121.025 121.878 120.867C121.936 120.709 121.961 120.54 121.953 120.372C121.944 120.204 121.902 120.039 121.828 119.888Z" fill="#263238"/>
<path d="M110.564 137.231L108.913 137.852C108.949 137.963 109.006 138.066 109.082 138.154C109.159 138.243 109.252 138.315 109.357 138.366C109.462 138.417 109.576 138.446 109.693 138.452C109.81 138.458 109.926 138.44 110.036 138.399C110.257 138.31 110.436 138.138 110.534 137.921C110.632 137.703 110.643 137.456 110.564 137.231Z" fill="#F28F8F"/>
<path d="M103.628 130.651L105.038 129.564C104.971 129.469 104.886 129.389 104.787 129.328C104.688 129.267 104.578 129.226 104.463 129.209C104.348 129.191 104.231 129.197 104.119 129.226C104.006 129.255 103.901 129.306 103.809 129.377C103.621 129.526 103.497 129.741 103.464 129.978C103.43 130.215 103.489 130.456 103.628 130.651Z" fill="#263238"/>
<path d="M104.063 132.567C104.069 132.708 104.117 132.844 104.2 132.958C104.283 133.072 104.398 133.159 104.531 133.208C104.663 133.258 104.807 133.267 104.944 133.236C105.082 133.204 105.208 133.133 105.305 133.031C105.403 132.929 105.468 132.801 105.493 132.662C105.519 132.523 105.503 132.38 105.447 132.25C105.392 132.121 105.299 132.01 105.181 131.932C105.064 131.854 104.926 131.813 104.784 131.813C104.589 131.818 104.403 131.9 104.268 132.041C104.133 132.183 104.059 132.371 104.063 132.567Z" fill="#263238"/>
<path d="M107.069 132.24L107.657 136.544L105.279 136.21L107.069 132.24Z" fill="#F28F8F"/>
<path d="M105.038 123.911C105.038 123.911 108.305 130.898 118.04 129.917C118.04 129.917 119.163 125.046 115.321 123.164C111.479 121.282 106.882 121.175 105.038 123.911Z" fill="#263238"/>
<path d="M115.094 129.043C116.236 129.19 116.57 130.932 116.29 132.38C116.009 133.828 117.385 133.948 118.461 132.38C119.153 131.178 119.545 129.828 119.604 128.443L115.094 129.043Z" fill="#263238"/>
<path d="M102.366 183.363C102.366 183.363 108.299 179.359 110.029 178.565C110.029 178.565 106.688 177.898 105.072 175.709C105.343 176.745 105.82 177.717 106.475 178.565L92.5038 187.995L102.366 183.363Z" fill="#12558A"/>
<path opacity="0.4" d="M102.366 183.363C102.366 183.363 108.299 179.359 110.029 178.565C110.029 178.565 106.688 177.898 105.072 175.709C105.343 176.745 105.82 177.717 106.475 178.565L92.5038 187.995L102.366 183.363Z" fill="black"/>
<path d="M240.089 123.591L199.092 99.9545C198.036 99.3473 197.181 99.8344 197.181 101.056V158.666C197.213 159.333 197.402 159.984 197.735 160.564C198.067 161.144 198.532 161.637 199.092 162.002L240.089 185.639C241.145 186.246 242 185.752 242 184.538V126.894C241.964 126.233 241.772 125.589 241.44 125.015C241.108 124.441 240.645 123.953 240.089 123.591Z" fill="#E0E0E0"/>
<path d="M187.146 148.189L200.168 155.703V145.366L187.426 146.834C186.217 146.974 186.09 147.581 187.146 148.189Z" fill="#E0E0E0"/>
<path d="M204.751 111.826L234.43 128.943C234.888 129.23 235.272 129.621 235.548 130.086C235.825 130.55 235.987 131.073 236.02 131.612C236.02 132.56 235.312 132.947 234.43 132.413L204.751 115.303C204.294 115.016 203.911 114.624 203.634 114.16C203.358 113.696 203.196 113.173 203.161 112.634C203.181 111.679 203.849 111.319 204.751 111.826Z" fill="#F0F0F0"/>
<path d="M204.738 122.156L234.417 139.273C234.876 139.56 235.26 139.951 235.537 140.416C235.815 140.88 235.978 141.403 236.013 141.943C236.013 142.89 235.299 143.277 234.417 142.743L204.738 125.633C204.281 125.345 203.899 124.952 203.623 124.489C203.347 124.025 203.184 123.502 203.148 122.964C203.181 122.01 203.849 121.649 204.738 122.156Z" fill="#F0F0F0"/>
<path d="M204.751 132.473L234.43 149.59C234.884 149.873 235.265 150.26 235.541 150.718C235.817 151.176 235.982 151.693 236.02 152.226C236.02 153.18 235.312 153.561 234.43 153.033L204.751 135.943C204.297 135.66 203.916 135.274 203.64 134.816C203.364 134.357 203.2 133.841 203.161 133.307C203.181 132.353 203.849 131.993 204.751 132.473Z" fill="#F0F0F0"/>
<path d="M204.751 142.837L234.43 159.947C234.888 160.234 235.271 160.626 235.547 161.09C235.823 161.554 235.986 162.077 236.02 162.616C236.02 163.571 235.312 163.951 234.43 163.424L204.751 146.307C204.293 146.02 203.909 145.629 203.633 145.164C203.356 144.7 203.195 144.177 203.161 143.638C203.181 142.69 203.849 142.33 204.751 142.837Z" fill="#F0F0F0"/>
<path d="M204.751 153.16L234.43 170.277C234.888 170.564 235.272 170.955 235.548 171.42C235.825 171.884 235.987 172.407 236.02 172.946C236.02 173.894 235.312 174.281 234.43 173.747L204.751 156.637C204.294 156.35 203.911 155.958 203.634 155.494C203.358 155.03 203.196 154.507 203.161 153.968C203.181 153.027 203.849 152.666 204.751 153.16Z" fill="#F0F0F0"/>
<path d="M200.168 54.5365V81.136C200.201 81.8031 200.391 82.453 200.723 83.0328C201.055 83.6126 201.52 84.1059 202.079 84.4726L234.109 102.937C235.165 103.551 236.02 103.058 236.02 101.836V75.2102C235.989 74.5427 235.799 73.8922 235.467 73.3122C235.135 72.7322 234.669 72.2391 234.109 71.8736L202.079 53.4087C201.03 52.8281 200.168 53.3153 200.168 54.5365Z" fill="#F0F0F0"/>
<path d="M190.734 66.4082L203.181 67.8429V78.1798L190.193 67.7428C190.05 67.6496 189.945 67.51 189.894 67.3479C189.844 67.1858 189.851 67.0111 189.915 66.8537C189.979 66.6962 190.095 66.5658 190.244 66.4846C190.394 66.4033 190.567 66.3763 190.734 66.4082Z" fill="#F0F0F0"/>
<path d="M236.02 67.8363C237.325 68.6854 238.412 69.8302 239.191 71.1776C239.97 72.525 240.419 74.0369 240.503 75.5906C240.503 78.4467 238.499 79.5945 236.02 78.1731C234.715 77.3225 233.628 76.1764 232.849 74.828C232.071 73.4795 231.621 71.9667 231.537 70.4121C231.537 67.5693 233.548 66.4082 236.02 67.8363Z" fill="#12558A"/>
<path opacity="0.7" d="M236.02 67.8363C237.325 68.6854 238.412 69.8302 239.191 71.1776C239.97 72.525 240.419 74.0369 240.503 75.5906C240.503 78.4467 238.499 79.5945 236.02 78.1731C234.715 77.3225 233.628 76.1764 232.849 74.828C232.071 73.4795 231.621 71.9667 231.537 70.4121C231.537 67.5693 233.548 66.4082 236.02 67.8363Z" fill="white"/>
<path d="M207.738 62.1173L228.45 74.0624C228.907 74.3502 229.29 74.7421 229.566 75.2061C229.843 75.6701 230.005 76.1929 230.04 76.7317C230.04 77.6793 229.325 78.0663 228.45 77.5325L207.738 65.5874C207.28 65.2996 206.898 64.9076 206.621 64.4436C206.345 63.9796 206.183 63.4569 206.148 62.9181C206.148 61.9705 206.863 61.6101 207.738 62.1173Z" fill="#E6E6E6"/>
<path d="M207.738 70.4789L228.45 82.424C228.907 82.7118 229.29 83.1037 229.566 83.5677C229.843 84.0317 230.005 84.5545 230.04 85.0933C230.04 86.0408 229.325 86.4279 228.45 85.894L207.738 73.9489C207.28 73.6611 206.898 73.2692 206.621 72.8052C206.345 72.3412 206.183 71.8184 206.148 71.2797C206.148 70.3321 206.863 69.9717 207.738 70.4789Z" fill="#E6E6E6"/>
<path d="M207.738 78.8404L228.45 90.7855C228.907 91.0733 229.29 91.4653 229.566 91.9292C229.843 92.3932 230.005 92.916 230.04 93.4548C230.04 94.4024 229.325 94.7894 228.45 94.2556L207.738 82.3105C207.28 82.0227 206.898 81.6307 206.621 81.1668C206.345 80.7028 206.183 80.18 206.148 79.6412C206.148 78.6936 206.863 78.3333 207.738 78.8404Z" fill="#E6E6E6"/>
<path d="M72.7804 89.0972L31.7901 65.4606C30.7344 64.8533 29.8792 65.3471 29.8792 66.5617V124.198C29.9103 124.866 30.0997 125.517 30.4319 126.097C30.7642 126.677 31.2297 127.17 31.7901 127.535L72.7804 151.158C73.8361 151.766 74.6913 151.272 74.6913 150.057V92.4338C74.6603 91.7662 74.4708 91.1155 74.1386 90.5354C73.8064 89.9553 73.3408 89.4623 72.7804 89.0972Z" fill="#E0E0E0"/>
<path d="M37.4425 77.3656L67.1213 94.4758C67.5802 94.7625 67.9644 95.154 68.242 95.6181C68.5197 96.0822 68.6829 96.6056 68.7181 97.1451C68.7181 98.0994 68.0032 98.4798 67.1213 97.9526L37.4425 80.8357C36.9852 80.5479 36.6026 80.156 36.3262 79.692C36.0498 79.228 35.8874 78.7052 35.8524 78.1664C35.8524 77.2188 36.5673 76.8585 37.4425 77.3656Z" fill="#F0F0F0"/>
<path d="M37.4359 87.6958L67.1146 104.806C67.572 105.094 67.9545 105.486 68.2309 105.95C68.5074 106.414 68.6697 106.937 68.7048 107.475C68.7048 108.43 67.9899 108.81 67.1146 108.276L37.4359 91.1659C36.9774 90.8793 36.594 90.4877 36.3174 90.0234C36.0409 89.5592 35.8791 89.0358 35.8457 88.4966C35.8457 87.549 36.5539 87.1886 37.4359 87.6958Z" fill="#F0F0F0"/>
<path d="M37.4425 98.0326L67.1213 115.123C67.5802 115.409 67.9644 115.801 68.242 116.265C68.5197 116.729 68.6829 117.253 68.7181 117.792C68.7181 118.74 68.0032 119.127 67.1213 118.593L37.4425 101.483C36.9859 101.194 36.6039 100.802 36.3276 100.338C36.0513 99.8743 35.8885 99.3519 35.8524 98.8134C35.8524 97.8858 36.5673 97.5255 37.4425 98.0326Z" fill="#F0F0F0"/>
<path d="M37.4425 108.369L67.1213 125.486C67.5762 125.769 67.958 126.155 68.2354 126.613C68.5129 127.072 68.6783 127.588 68.7181 128.122C68.7181 129.077 68.0032 129.457 67.1213 128.93L37.4425 111.786C36.9895 111.502 36.6097 111.115 36.3335 110.657C36.0573 110.199 35.8925 109.683 35.8524 109.15C35.8524 108.223 36.5673 107.862 37.4425 108.369Z" fill="#F0F0F0"/>
<path d="M37.4425 118.713L67.1213 135.81C67.5802 136.096 67.9644 136.488 68.242 136.952C68.5197 137.416 68.6829 137.94 68.7181 138.479C68.7181 139.427 68.0032 139.814 67.1213 139.28L37.4425 122.17C36.9852 121.882 36.6026 121.49 36.3262 121.026C36.0498 120.562 35.8874 120.039 35.8524 119.5C35.8524 118.566 36.5673 118.206 37.4425 118.713Z" fill="#F0F0F0"/>
<path d="M71.7047 143.638L83.3637 150.357C83.5097 150.439 83.6793 150.468 83.844 150.439C84.0087 150.41 84.1585 150.326 84.2682 150.2C84.3779 150.074 84.4408 149.914 84.4465 149.747C84.4521 149.58 84.4001 149.416 84.2991 149.283L71.7047 133.301V143.638Z" fill="#E0E0E0"/>
<path d="M0 142.403V169.003C0.0315773 169.67 0.221246 170.32 0.55343 170.901C0.885615 171.481 1.35084 171.974 1.91088 172.339L33.9415 190.804C34.9971 191.411 35.8523 190.924 35.8523 189.703V163.077C35.8208 162.409 35.6311 161.759 35.2989 161.179C34.9667 160.599 34.5015 160.106 33.9415 159.74L1.91088 141.302C0.855219 140.688 0 141.182 0 142.403Z" fill="#F0F0F0"/>
<path d="M45.6807 182.783L32.8658 169.483V179.853L44.8923 184.024C45.0557 184.101 45.2417 184.116 45.4152 184.065C45.5888 184.015 45.738 183.903 45.8348 183.751C45.9316 183.598 45.9693 183.416 45.941 183.238C45.9126 183.059 45.82 182.898 45.6807 182.783Z" fill="#F0F0F0"/>
<path d="M35.8524 155.703C37.1577 156.552 38.244 157.697 39.023 159.044C39.802 160.391 40.2517 161.903 40.3356 163.457C40.3356 166.307 38.3311 167.461 35.8524 166.04C34.5478 165.19 33.4621 164.045 32.6831 162.697C31.9042 161.35 31.4541 159.839 31.3691 158.285C31.3691 155.429 33.3802 154.275 35.8524 155.703Z" fill="#12558A"/>
<path opacity="0.7" d="M35.8524 155.703C37.1577 156.552 38.244 157.697 39.023 159.044C39.802 160.391 40.2517 161.903 40.3356 163.457C40.3356 166.307 38.3311 167.461 35.8524 166.04C34.5478 165.19 33.4621 164.045 32.6831 162.697C31.9042 161.35 31.4541 159.839 31.3691 158.285C31.3691 155.429 33.3802 154.275 35.8524 155.703Z" fill="white"/>
<path d="M7.57 149.984L28.2823 161.929C28.7397 162.217 29.1222 162.609 29.3986 163.073C29.6751 163.537 29.8374 164.059 29.8725 164.598C29.8725 165.546 29.1576 165.933 28.2756 165.399L7.56332 153.454C7.10484 153.167 6.72141 152.776 6.44486 152.311C6.1683 151.847 6.00658 151.324 5.97314 150.785C5.97983 149.824 6.68806 149.477 7.57 149.984Z" fill="#E6E6E6"/>
<path d="M7.57 158.345L28.2823 170.29C28.7397 170.578 29.1222 170.97 29.3986 171.434C29.6751 171.898 29.8374 172.421 29.8725 172.96C29.8725 173.907 29.1576 174.294 28.2756 173.761L7.56332 161.815C7.10484 161.529 6.72141 161.137 6.44486 160.673C6.1683 160.209 6.00658 159.685 5.97314 159.146C5.97983 158.199 6.68806 157.832 7.57 158.345Z" fill="#E6E6E6"/>
<path d="M7.57 166.707L28.2823 178.652C28.7397 178.94 29.1222 179.332 29.3986 179.796C29.6751 180.26 29.8374 180.783 29.8725 181.321C29.8725 182.269 29.1576 182.656 28.2756 182.122L7.56332 170.177C7.10484 169.89 6.72141 169.499 6.44486 169.035C6.1683 168.57 6.00658 168.047 5.97314 167.508C5.97983 166.56 6.68806 166.2 7.57 166.707Z" fill="#E6E6E6"/>
<path d="M23.8994 18.3609V44.9604C23.9304 45.628 24.1198 46.2787 24.4521 46.8588C24.7843 47.4389 25.2498 47.9319 25.8102 48.297L57.8408 66.7685C58.8965 67.3758 59.7517 66.882 59.7517 65.6608V39.0479C59.7207 38.3803 59.5312 37.7296 59.199 37.1495C58.8667 36.5694 58.4012 36.0765 57.8408 35.7113L25.8102 17.2598C24.788 16.6525 23.8994 17.1463 23.8994 18.3609Z" fill="#F0F0F0"/>
<path d="M69.5533 58.7473L56.7384 45.4409V55.7777L68.7649 59.9485C68.9219 60.0096 69.0951 60.015 69.2556 59.9637C69.4161 59.9125 69.5541 59.8077 69.6465 59.667C69.7388 59.5263 69.78 59.3581 69.763 59.1907C69.7461 59.0232 69.672 58.8667 69.5533 58.7473Z" fill="#F0F0F0"/>
<path d="M59.7517 31.6606C61.0521 32.5128 62.1331 33.6589 62.9074 35.0061C63.6816 36.3533 64.1273 37.8637 64.2082 39.4149C64.2082 42.2711 62.2038 43.4189 59.725 41.9975C58.4204 41.1475 57.3347 40.0025 56.5558 38.6553C55.7769 37.3081 55.3267 35.7966 55.2418 34.2432C55.2685 31.3937 57.2796 30.2326 59.7517 31.6606Z" fill="#12558A"/>
<path opacity="0.7" d="M59.7517 31.6606C61.0521 32.5128 62.1331 33.6589 62.9074 35.0061C63.6816 36.3533 64.1273 37.8637 64.2082 39.4149C64.2082 42.2711 62.2038 43.4189 59.725 41.9975C58.4204 41.1475 57.3347 40.0025 56.5558 38.6553C55.7769 37.3081 55.3267 35.7966 55.2418 34.2432C55.2685 31.3937 57.2796 30.2326 59.7517 31.6606Z" fill="white"/>
<path d="M31.4694 25.9417L52.1817 37.8868C52.6391 38.1746 53.0216 38.5665 53.298 39.0305C53.5744 39.4945 53.7368 40.0173 53.7719 40.5561C53.7719 41.5037 53.057 41.8907 52.1817 41.3569L31.4694 29.4118C31.0109 29.1252 30.6275 28.7335 30.3509 28.2693C30.0744 27.8051 29.9127 27.2816 29.8792 26.7425C29.8792 25.7949 30.5874 25.4345 31.4694 25.9417Z" fill="#E6E6E6"/>
<path d="M31.4694 34.3032L52.1817 46.2483C52.6391 46.5361 53.0216 46.9281 53.298 47.3921C53.5744 47.8561 53.7368 48.3789 53.7719 48.9176C53.7719 49.8652 53.057 50.2523 52.1817 49.7184L31.4694 37.7733C31.0109 37.4867 30.6275 37.0951 30.3509 36.6308C30.0744 36.1666 29.9127 35.6432 29.8792 35.104C29.8792 34.1564 30.5874 33.7961 31.4694 34.3032Z" fill="#E6E6E6"/>
<path d="M31.4694 42.6648L52.1817 54.6099C52.6391 54.8977 53.0216 55.2897 53.298 55.7536C53.5744 56.2176 53.7368 56.7404 53.7719 57.2792C53.7719 58.2268 53.057 58.6138 52.1817 58.08L31.4694 46.1349C31.0109 45.8483 30.6275 45.4566 30.3509 44.9924C30.0744 44.5282 29.9127 44.0048 29.8792 43.4656C29.8792 42.518 30.5874 42.1576 31.4694 42.6648Z" fill="#E6E6E6"/>
<path d="M164.367 28.7945L163.762 25.3017L160.644 27.3537C160.36 26.7931 159.956 26.3013 159.461 25.9128L160.953 21.8762L158.15 21.2539L156.098 25.1784C155.355 25.3036 154.635 25.5379 153.962 25.8736L153.07 22.9134L149.74 25.5316L149.959 29.0075C149.28 29.7672 148.665 30.581 148.12 31.4407L145.373 31.3006L143.444 35.6231L145.804 36.6323C145.558 37.5263 145.402 38.4429 145.339 39.3682L142.339 42.1265L142.939 45.6249L146.062 43.573C146.345 44.1331 146.749 44.6233 147.245 45.0082L145.782 49.0505L148.585 49.6672L151.523 46.8079C152.201 46.7014 152.033 45.4231 152.773 45.0587L153.664 48.0077L156.989 45.3951L156.905 44.0271C157.578 43.2759 160.123 41.622 160.672 40.7586L161.362 39.6373L163.291 35.3148L162.394 33.6889L161.396 31.5697L164.367 28.7945ZM154.191 40.2932C151.635 42.3003 150.828 42.7432 150.396 40.0578C149.964 37.3723 151.427 33.2908 153.984 31.2781C156.541 29.2654 157.516 29.1253 157.976 31.8051C158.435 34.485 156.754 38.3086 154.191 40.2932Z" fill="#E0E0E0"/>
<path d="M158.172 21.2539L161.81 23.3507L159.759 27.264L156.12 25.1672L158.172 21.2539Z" fill="#F5F5F5"/>
<path d="M167.4 27.3985L164.283 29.4505L160.644 27.3537L163.762 25.3017L167.4 27.3985Z" fill="#F5F5F5"/>
<path d="M166.901 37.3947L164.541 36.3912L160.902 34.2944L163.263 35.2979L166.901 37.3947Z" fill="#E0E0E0"/>
<path d="M145.776 49.0505L149.415 51.1417L150.906 47.105L147.267 45.0082L145.776 49.0505Z" fill="#E0E0E0"/>
<path d="M157.269 50.1045L153.636 48.0077L152.745 45.0587L156.384 47.1555L157.269 50.1045Z" fill="#E0E0E0"/>
<path d="M168 30.8913L167.4 27.3985L164.283 29.4505C163.996 28.8896 163.59 28.3979 163.094 28.0096L164.586 23.973L161.81 23.3507L159.753 27.2752C159.011 27.4004 158.291 27.6347 157.617 27.9704L156.731 25.0214L153.401 27.6396L153.62 31.1156C152.941 31.8806 152.326 32.7 151.781 33.5656L149.028 33.4254L147.099 37.7479L149.46 38.7571C149.215 39.6536 149.06 40.5718 148.994 41.4986L146 44.2177L146.6 47.7161L149.717 45.6642C150.004 46.2234 150.41 46.7132 150.906 47.0994L149.415 51.136L152.218 51.7583L154.27 47.8339C155.015 47.71 155.737 47.4737 156.412 47.1331L157.297 50.082L160.628 47.4694L160.409 43.9935C161.087 43.2338 161.702 42.42 162.248 41.5603L165.001 41.6948L166.929 37.3723L164.535 36.3688C164.783 35.4729 164.941 34.5545 165.006 33.6272L168 30.8913ZM157.836 42.4125C155.285 44.4196 152.84 43.8757 152.375 41.1959C151.91 38.516 153.608 34.7093 156.165 32.7022C158.721 30.6951 161.16 31.2445 161.625 33.9244C162.091 36.6042 160.392 40.4054 157.836 42.4125Z" fill="#EBEBEB"/>
<path d="M156.731 25.0102L153.093 22.9134L149.762 25.5316L153.401 27.6284L156.731 25.0102Z" fill="#F5F5F5"/>
<path d="M149.762 25.5316L149.981 29.0075L153.62 31.1043L153.401 27.6284L149.762 25.5316Z" fill="#E0E0E0"/>
<path d="M151.781 33.5375L148.142 31.4407L145.395 31.3062L149.028 33.403L151.781 33.5375Z" fill="#F5F5F5"/>
<path d="M145.395 31.3062L143.466 35.6231L147.099 37.7199L149.028 33.403L145.395 31.3062Z" fill="#E0E0E0"/>
<path d="M148.994 41.465L145.361 39.3682L142.362 42.1265L145.995 44.2233L148.994 41.465Z" fill="#F5F5F5"/>
<path d="M146.6 47.7217L142.962 45.6249L142.362 42.1265L145.995 44.2233L146.6 47.7217Z" fill="#E0E0E0"/>
<path d="M161.811 23.3507L158.172 21.2539L160.953 21.8762L164.586 23.973L161.811 23.3507Z" fill="#F5F5F5"/>
<path d="M148.075 12.9396V7.72003L143.92 9.59256C143.7 8.707 143.32 7.8691 142.799 7.12014L145.417 1.84451L142.222 0L138.959 4.90561C138.05 4.82617 137.133 4.9155 136.257 5.16911L135.797 0.633527L131.278 3.24611L130.824 8.29188C129.84 9.16329 128.936 10.1201 128.122 11.1511L124.859 10.0299L121.663 15.569L124.276 17.8116C123.793 19.0324 123.418 20.293 123.154 21.5791L119 24.5V29.7252L123.154 27.8526C123.374 28.7382 123.754 29.5761 124.276 30.3251L121.674 35.6063L124.87 37.4508L128.133 32.5452C129.042 32.6244 129.958 32.5351 130.835 32.2817L131.289 36.8173L135.808 34.2047L136.268 29.1589C137.678 28.6443 138.928 27.7663 139.889 26.6136L142.233 27.4378L145.429 21.9042L143.466 20.2223C143.892 18.8198 144.05 17.3496 143.932 15.8886L148.075 12.9396ZM133.537 25.9801C130.073 27.9816 127.931 26.5407 127.931 22.5546C127.931 18.5684 130.796 13.6404 134.266 11.6389C137.737 9.63742 139.833 11.0783 139.833 15.0981C139.833 19.1178 137.008 23.973 133.537 25.9801Z" fill="#E0E0E0"/>
<path d="M145.855 2.09119L142.222 0L138.959 4.90561L142.592 7.00241L145.855 2.09119Z" fill="#F5F5F5"/>
<path d="M151.713 9.81682L148.075 7.72002L143.92 9.59256L147.559 11.6894L151.713 9.81682Z" fill="#F5F5F5"/>
<path d="M134.911 38.9141L131.278 36.8173L130.824 32.2817L134.457 34.3785L134.911 38.9141Z" fill="#E0E0E0"/>
<path d="M121.657 35.6063L125.296 37.7031L127.914 32.4275L124.276 30.3307L121.657 35.6063Z" fill="#E0E0E0"/>
<path d="M151.713 15.0644V9.84485L147.559 11.7006C147.341 10.8142 146.961 9.9759 146.438 9.22814L149.056 3.95252L145.86 2.1024L142.597 7.01362C141.688 6.93141 140.771 7.0208 139.895 7.27712L139.435 2.73032L134.917 5.34291L134.457 10.3887C133.475 11.2615 132.571 12.2182 131.755 13.2479L128.492 12.1267L125.296 17.6658L127.914 19.9084C127.429 21.1283 127.054 22.3891 126.793 23.6759L122.639 26.5968V31.822L126.793 29.9494C127.011 30.8358 127.391 31.6742 127.914 32.4219L125.296 37.6975L128.492 39.542L131.755 34.6364C132.664 34.7158 133.58 34.6265 134.457 34.3729L134.917 38.9085L139.435 36.2959L139.889 31.2501C140.873 30.3787 141.777 29.4219 142.592 28.3908L145.855 29.5121L149.05 23.9786L146.432 21.736C146.917 20.5161 147.293 19.2552 147.553 17.9685L151.713 15.0644ZM137.176 28.1049C133.706 30.1064 130.891 28.4805 130.891 24.4776C130.891 20.4746 133.694 15.6026 137.176 13.5955C140.658 11.5884 143.455 13.2199 143.455 17.2229C143.455 21.2259 140.641 26.0698 137.176 28.0769V28.1049Z" fill="#EBEBEB"/>
<path d="M128.122 11.1624L131.755 13.2592L128.492 12.1211L124.859 10.0187L128.122 11.1624Z" fill="#F0F0F0"/>
<path d="M124.858 10.0244L121.662 15.5654L125.299 17.6637L128.496 12.1227L124.858 10.0244Z" fill="#F5F5F5"/>
<path d="M121.657 15.5578L125.296 17.6546L127.914 19.9084L124.276 17.8172L121.657 15.5578Z" fill="#E0E0E0"/>
<path d="M123.154 21.5847L126.793 23.6815L122.639 26.6024L119 24.5056L123.154 21.5847Z" fill="#F5F5F5"/>
<path d="M119 24.5056L122.639 26.6024V31.8276L119 29.7308V24.5056Z" fill="#E0E0E0"/>
<path d="M139.435 2.73032L135.797 0.63353L131.278 3.24611L134.911 5.34291L139.435 2.73032Z" fill="#F5F5F5"/>
<path d="M183.699 128.207L183.417 128.299C183.123 128.397 182.856 128.563 182.637 128.782L182.017 129.407C181.974 128.42 181.644 127.468 181.067 126.666C180.628 126.064 180.219 126.476 180.219 126.476C180.219 126.476 180.959 129.565 180.03 131.404L179.737 131.981L182.971 136.385L183.494 136.038C183.706 135.923 184.916 135.272 185.696 134.851C185.92 134.718 186.111 134.536 186.255 134.319C186.399 134.102 186.492 133.855 186.528 133.597C186.642 132.857 186.528 132.099 186.201 131.426L185.147 129.133C184.828 128.46 184.196 128.041 183.699 128.207Z" fill="#12558A"/>
<path opacity="0.9" d="M183.451 128.341L183.168 128.433C182.875 128.531 182.608 128.696 182.389 128.916L181.769 129.541C181.726 128.554 181.396 127.601 180.819 126.8C180.379 126.198 179.97 126.61 179.97 126.61C179.97 126.61 180.711 129.699 179.781 131.538L179.489 132.115L182.722 136.519L183.245 136.171C183.458 136.057 184.667 135.405 185.447 134.985C185.671 134.852 185.862 134.67 186.007 134.453C186.151 134.236 186.244 133.989 186.28 133.731C186.394 132.99 186.28 132.233 185.952 131.56L184.898 129.267C184.58 128.594 183.948 128.175 183.451 128.341Z" fill="#FAFAFA"/>
<path d="M181.252 138.737L183.101 137.151C183.247 137.029 183.24 136.742 183.085 136.516L179.6 131.353C179.445 131.127 179.202 131.044 179.057 131.166L177.207 132.752C177.062 132.874 177.069 133.161 177.224 133.388L180.709 138.55C180.864 138.776 181.106 138.859 181.252 138.737Z" fill="#12558A"/>
</svg>
