<svg width="80" height="96" viewBox="0 0 80 96" fill="none" xmlns="http://www.w3.org/2000/svg">
<path fill-rule="evenodd" clip-rule="evenodd" d="M45.9129 18.7255C47.1033 17.3284 47.9089 15.6161 47.7743 13.6975C47.3864 8.16932 39.691 9.38544 38.1941 12.1756C36.6972 14.9657 36.8751 22.0431 38.8097 22.5418C39.5812 22.7406 41.2248 22.2535 42.8976 21.2452L41.8476 28.6734H48.0472L45.9129 18.7255Z" fill="#B28B67"/>
<path fill-rule="evenodd" clip-rule="evenodd" d="M41.7278 8.95985C42.5449 8.82585 44.7449 8.73373 45.1507 8.73378C45.4099 8.73378 45.6909 8.79302 45.8445 8.55495C45.9702 8.35999 45.9242 8.03027 45.9617 7.80403C46.0053 7.54121 46.0672 7.28179 46.1298 7.02302C46.308 6.28667 46.5774 5.58613 46.9544 4.92841C47.6617 3.69444 48.6979 2.72787 50.0061 2.16543C51.4508 1.5444 53.0855 1.4022 54.6394 1.52816C56.3023 1.66293 57.8076 2.21188 59.3776 2.72847C60.8738 3.22073 62.4409 3.4145 64.0057 3.1741C65.5823 2.93193 66.7736 2.07741 68.1034 1.26636C69.4648 0.436044 71.0206 -0.107012 72.63 0.0178236C74.1324 0.134392 75.517 0.754705 76.7593 1.58336C77.9216 2.35866 78.8806 3.29145 79.4221 4.60427C80.0045 6.01648 80.004 7.56661 79.0461 8.81467C77.6578 10.6237 75.0803 11.0916 72.936 11.0451C71.6957 11.0182 70.4775 10.7918 69.3065 10.38C67.7448 9.83066 66.3953 8.89966 64.9343 8.14428C64.2487 7.78981 63.54 7.49869 62.7971 7.28898C62.0762 7.08541 61.3662 6.99203 60.7135 7.4275C60.0231 7.88818 59.4044 8.34072 58.6145 8.62911C57.8567 8.90578 57.0541 9.06053 56.2468 9.05429C54.6761 9.04216 53.1277 8.55275 51.6021 8.22493C50.358 7.95765 49.027 7.69127 47.7586 7.94819C47.2294 8.05543 46.4564 8.27679 46.2652 8.8268C49.4824 9.40988 50.746 13.3887 49.839 16.3095C49.3495 17.886 46.407 19.7289 45.2629 18.9001C44.5381 18.375 44.9781 17.6857 45.2629 17.2307C45.8083 16.3593 45.9948 15.2399 44.9857 14.6332C44.1152 14.11 43.2 15.3526 43.1827 15.3512C42.9435 15.3324 40.8762 14.1632 39.4519 12.4572C38.0468 12.5405 37.8337 11.614 38.1692 10.8563C38.5047 10.0987 40.5988 9.14511 41.7278 8.95985V8.95985Z" fill="#0B3556"/>
<path d="M50.6305 95.0612C39.6452 95.0612 30.7399 86.5607 30.7399 76.0748C30.7399 65.5889 39.6452 57.0884 50.6305 57.0884C61.6157 57.0884 70.521 65.5889 70.521 76.0748C70.521 86.5607 61.6157 95.0612 50.6305 95.0612Z" fill="#9EA5A9"/>
<path fill-rule="evenodd" clip-rule="evenodd" d="M13.0427 92.1318C16.3525 84.8064 18.7461 78.4276 19.7069 75.0622C21.352 69.2998 22.6035 64.2292 22.9198 62.3356C23.6741 57.82 17.1174 57.5571 16.2508 59.8012C14.9391 63.1978 12.6492 74.3577 9.89762 91.2142L13.0427 92.1318ZM51.4343 69.1424C48.3975 67.9421 37.7631 64.1857 32.6341 63.123C31.1603 62.8177 29.7318 62.534 28.3887 62.2776C24.3967 61.5155 22.3284 68.7172 26.1732 69.2706C35.7483 70.6486 49.3227 72.0717 50.4843 72.2314C52.1124 72.4552 53.3428 69.8968 51.4343 69.1424V69.1424Z" fill="#B28B67"/>
<path fill-rule="evenodd" clip-rule="evenodd" d="M25.9385 60.2957L42.3643 51.9341V50.1138H40.4108C24.5196 54.1631 16.3993 56.7582 16.0497 57.8989C16.0459 57.9112 16.0425 57.9235 16.0394 57.9358C16.0314 57.9463 16.0235 57.9569 16.0158 57.9675C12.8665 62.2987 10.9804 83.4438 10.3613 85.0271L16.3961 85.9274C18.7045 77.3672 26.0902 71.4039 25.894 61.1515C25.947 60.8507 25.9604 60.5655 25.9385 60.2957V60.2957Z" fill="#12558A"/>
<path fill-rule="evenodd" clip-rule="evenodd" d="M40.9996 65.2617C42.5025 64.9609 43.8865 64.6923 45.0708 64.4846C52.7205 63.1429 54.9512 59.0481 53.6323 50.1138H39.5379C37.2355 50.7752 25.2703 55.7929 19.0623 58.4617C14.9535 60.2281 16.2487 66.5957 18.5755 68.2528C18.5882 68.3544 18.63 68.4235 18.7046 68.4544C31.2213 73.6421 41.1231 70.9201 44.4309 71.7899L45.9609 66.9635L40.9996 65.2617Z" fill="#427BA8"/>
<path fill-rule="evenodd" clip-rule="evenodd" d="M50.396 68.3753C51.2161 68.4537 51.7982 68.5769 52.1425 68.7448C52.5612 68.949 53.1381 69.3167 53.8733 69.848L47.4864 82.9431C46.1954 82.7347 45.6839 82.242 45.9518 81.4651C46.2197 80.6882 46.4357 80.0396 46.6 79.5194L46.8551 72.1095C46.8601 71.9669 46.9796 71.8553 47.1222 71.8603C47.1246 71.8603 47.1271 71.8605 47.1295 71.8606L48.2694 71.9323C48.9171 71.408 49.3444 70.9337 49.5514 70.5093C49.7195 70.1646 49.8125 69.6205 49.8303 68.8772L49.8303 68.8772C49.8372 68.592 50.0739 68.3663 50.3592 68.3731C50.3715 68.3734 50.3838 68.3741 50.396 68.3753V68.3753Z" fill="#F0F0F0"/>
<path fill-rule="evenodd" clip-rule="evenodd" d="M14.5491 90.7736C14.838 91.5451 14.9825 92.1223 14.9825 92.5053C14.9825 92.9711 14.9049 93.6509 14.7497 94.5446H0.180104C-0.198509 93.2929 0.020048 92.6172 0.835776 92.5173C1.6515 92.4175 2.32914 92.3274 2.86869 92.247L9.64052 89.2281C9.77082 89.17 9.92355 89.2285 9.98164 89.3588C9.98263 89.3611 9.98359 89.3633 9.98452 89.3656L10.4198 90.4215C11.175 90.7738 11.7886 90.95 12.2607 90.95C12.6443 90.95 13.1741 90.7951 13.85 90.4852L13.85 90.4852C14.1093 90.3663 14.416 90.4802 14.5349 90.7396C14.54 90.7507 14.5447 90.7621 14.5491 90.7736V90.7736Z" fill="#F0F0F0"/>
<path fill-rule="evenodd" clip-rule="evenodd" d="M26.3485 43.0403L16.9884 38.9297C15.3487 37.2958 13.7654 36.0539 12.2384 35.2042C11.7818 35.0588 11.0017 35.0149 11.834 36.2305C12.6663 37.4461 13.4871 38.7622 13.1545 39.1883C12.8219 39.6143 11.8586 39.1441 11.478 39.8369C11.2243 40.2988 12.8481 40.8513 16.3496 41.4944L23.3597 46.8691L26.3485 43.0403ZM64.19 44.1725L58.8966 45.2227C64.22 55.1435 67.0748 60.4015 67.4611 60.9968C68.3303 62.3361 67.5193 64.7907 67.2198 66.0833C69.099 66.5208 68.3579 63.6923 70.7361 64.2829C72.9067 64.8219 74.7472 66.2053 76.7712 64.3396C77.0201 64.1102 77.2022 63.3932 76.3538 63.0255C74.24 62.1094 71.1171 60.3939 70.6107 59.7279C69.9202 58.8197 67.7799 53.6345 64.19 44.1725Z" fill="#B28B67"/>
<path fill-rule="evenodd" clip-rule="evenodd" d="M44.5096 24.3677L42.2759 23.9846C37.4106 28.7041 35.4252 40.0426 32.1829 41.5434C29.1174 42.9624 24.7718 41.5893 19.6064 39.7352L18.0246 43.2695C22.7178 48.347 32.7163 52.6367 36.769 50.1878C43.2486 46.2725 44.7445 32.2882 44.5096 24.3677V24.3677Z" fill="#F9CEBD"/>
<path fill-rule="evenodd" clip-rule="evenodd" d="M54.2468 52.4387H34.4825C33.5794 52.4387 33.7496 51.1346 33.8801 50.4765C35.3868 42.8818 41.2686 34.6951 41.2686 23.8843L46.9695 22.9903C51.685 30.5742 53.3156 39.9114 54.2468 52.4387V52.4387Z" fill="#DDE3E9"/>
<path fill-rule="evenodd" clip-rule="evenodd" d="M56.2181 44.7493C60.2472 52.017 63.6339 57.2494 66.3781 60.4465L70.5209 59.6351C67.8523 43.0851 60.1244 30.8702 47.3373 22.9903H47.2722H45.08C39.9621 40.4364 38.5511 52.0607 40.8472 57.8633H58.6382C58.3568 53.6175 57.4542 49.1273 56.2181 44.7493H56.2181Z" fill="#F9CEBD"/>
<path d="M9.58224 32.1691C8.87374 32.446 9.05795 33.7715 9.35552 35.2552C9.65309 36.7388 10.1455 39.2315 10.2978 39.8882C10.4501 40.545 10.6521 40.9525 11.5306 40.9525C12.4092 40.9525 13.8403 41.0594 14.4603 40.9525C15.0802 40.8457 15.1688 40.2324 15.0412 38.8358C14.8918 37.2415 14.6695 35.6569 14.3752 34.088C14.1273 32.7625 13.9749 32.0583 13.2381 32.0583C12.3808 32.0464 10.3262 31.8803 9.58224 32.1691Z" fill="#263238"/>
<path opacity="0.8" d="M9.47375 32.849L13.2549 32.849L14.7092 39.8296L10.928 39.8296L9.47375 32.849Z" fill="white"/>
<line x1="10.1888" y1="33.75" x2="12.6888" y2="33.75" stroke="#0B3556" stroke-width="0.5" stroke-linecap="round"/>
<line x1="11.1888" y1="34.75" x2="12.6888" y2="34.75" stroke="#0B3556" stroke-width="0.5" stroke-linecap="round"/>
<line x1="11.1888" y1="35.75" x2="12.6888" y2="35.75" stroke="#0B3556" stroke-width="0.5" stroke-linecap="round"/>
</svg>
